<svg xmlns="http://www.w3.org/2000/svg" viewBox="0 0 64 64" width="64" height="64" fill="none">
<defs>
    <linearGradient id="flagGrad" x1="0" y1="0" x2="0" y2="1">
      <stop offset="0%" stop-color="#FFD100"/>
      <stop offset="50%" stop-color="#FFD100"/>
      <stop offset="50%" stop-color="#C8102E"/>
      <stop offset="100%" stop-color="#C8102E"/>
    </linearGradient>
    <linearGradient id="goldGrad" x1="0" y1="0" x2="1" y2="1">
      <stop offset="0%" stop-color="#FDE047"/>
      <stop offset="50%" stop-color="#D4AF37"/>
      <stop offset="100%" stop-color="#996515"/>
    </linearGradient>
    <linearGradient id="redGrad" x1="0" y1="0" x2="1" y2="1">
      <stop offset="0%" stop-color="#EF4444"/>
      <stop offset="100%" stop-color="#991B1B"/>
    </linearGradient>
    <linearGradient id="greenGrad" x1="0" y1="0" x2="1" y2="1">
      <stop offset="0%" stop-color="#34D399"/>
      <stop offset="100%" stop-color="#065F46"/>
    </linearGradient>
    <linearGradient id="coffeeGrad" x1="0" y1="0" x2="1" y2="1">
      <stop offset="0%" stop-color="#92400E"/>
      <stop offset="100%" stop-color="#451A03"/>
    </linearGradient>

</defs>
<!-- Symmetrical iron and glass conservatory roof -->
    <path d="M 12 44 L 16 28 C 16 18 48 18 48 28 L 52 44 Z" fill="rgba(2,132,199,0.15)" stroke="#0F172A" stroke-width="2"/>
    <!-- Center dome cupola -->
    <path d="M 26 22 C 26 14 38 14 38 22" stroke="#0F172A" stroke-width="2" fill="none"/>
    <line x1="32" y1="14" x2="32" y2="10" stroke="#0F172A" stroke-width="2"/>
    <circle cx="32" cy="9" r="1.5" fill="#D4AF37"/>
    <!-- Lattice grid lines -->
    <line x1="24" y1="26" x2="24" y2="44" stroke="#1E293B" stroke-width="1"/>
    <line x1="32" y1="22" x2="32" y2="44" stroke="#1E293B" stroke-width="1"/>
    <line x1="40" y1="26" x2="40" y2="44" stroke="#1E293B" stroke-width="1"/>
    <line x1="10" y1="44" x2="54" y2="44" stroke="#0F172A" stroke-width="2"/>
</svg>
